ISO-10303-21;
HEADER;
FILE_DESCRIPTION(('FreeCAD Model'),'2;1');
FILE_NAME('/Users/alice/Documents/Parts/motor-mount-bracket.step','2026-09-17T09:00:00',('FreeCAD'),(''),'Open CASCADE STEP processor 7.8','FreeCAD','Unknown');
FILE_SCHEMA(('AUTOMOTIVE_DESIGN { 1 0 10303 214 1 1 1 1 }'));
ENDSEC;
DATA;
#1 = CARTESIAN_POINT('',(8.,0.,0.));
#2 = VERTEX_POINT('',#1);
#3 = CARTESIAN_POINT('',(72.,0.,0.));
#4 = VERTEX_POINT('',#3);
#5 = CARTESIAN_POINT('',(72.,0.,6.));
#6 = VERTEX_POINT('',#5);
#7 = CARTESIAN_POINT('',(8.,0.,6.));
#8 = VERTEX_POINT('',#7);
#9 = CARTESIAN_POINT('',(80.,8.,0.));
#10 = VERTEX_POINT('',#9);
#11 = CARTESIAN_POINT('',(80.,50.,0.));
#12 = VERTEX_POINT('',#11);
#13 = CARTESIAN_POINT('',(80.,50.,46.));
#14 = VERTEX_POINT('',#13);
#15 = CARTESIAN_POINT('',(80.,44.,46.));
#16 = VERTEX_POINT('',#15);
#17 = CARTESIAN_POINT('',(80.,44.,6.));
#18 = VERTEX_POINT('',#17);
#19 = CARTESIAN_POINT('',(80.,8.,6.));
#20 = VERTEX_POINT('',#19);
#21 = CARTESIAN_POINT('',(0.,50.,0.));
#22 = VERTEX_POINT('',#21);
#23 = CARTESIAN_POINT('',(0.,50.,46.));
#24 = VERTEX_POINT('',#23);
#25 = CARTESIAN_POINT('',(51.,50.,28.));
#26 = VERTEX_POINT('',#25);
#27 = CARTESIAN_POINT('',(24.5,50.,14.2));
#28 = VERTEX_POINT('',#27);
#29 = CARTESIAN_POINT('',(55.5,50.,14.2));
#30 = VERTEX_POINT('',#29);
#31 = CARTESIAN_POINT('',(24.5,50.,45.2));
#32 = VERTEX_POINT('',#31);
#33 = CARTESIAN_POINT('',(55.5,50.,45.2));
#34 = VERTEX_POINT('',#33);
#35 = CARTESIAN_POINT('',(0.,8.,0.));
#36 = VERTEX_POINT('',#35);
#37 = CARTESIAN_POINT('',(0.,8.,6.));
#38 = VERTEX_POINT('',#37);
#39 = CARTESIAN_POINT('',(0.,44.,6.));
#40 = VERTEX_POINT('',#39);
#41 = CARTESIAN_POINT('',(0.,44.,46.));
#42 = VERTEX_POINT('',#41);
#43 = CARTESIAN_POINT('',(10.,13.3,0.));
#44 = VERTEX_POINT('',#43);
#45 = CARTESIAN_POINT('',(70.,13.3,0.));
#46 = VERTEX_POINT('',#45);
#47 = CARTESIAN_POINT('',(10.,39.3,0.));
#48 = VERTEX_POINT('',#47);
#49 = CARTESIAN_POINT('',(70.,39.3,0.));
#50 = VERTEX_POINT('',#49);
#51 = CARTESIAN_POINT('',(10.,15.5,6.));
#52 = VERTEX_POINT('',#51);
#53 = CARTESIAN_POINT('',(70.,15.5,6.));
#54 = VERTEX_POINT('',#53);
#55 = CARTESIAN_POINT('',(10.,41.5,6.));
#56 = VERTEX_POINT('',#55);
#57 = CARTESIAN_POINT('',(70.,41.5,6.));
#58 = VERTEX_POINT('',#57);
#59 = CARTESIAN_POINT('',(51.,44.,28.));
#60 = VERTEX_POINT('',#59);
#61 = CARTESIAN_POINT('',(24.5,44.,14.2));
#62 = VERTEX_POINT('',#61);
#63 = CARTESIAN_POINT('',(55.5,44.,14.2));
#64 = VERTEX_POINT('',#63);
#65 = CARTESIAN_POINT('',(24.5,44.,45.2));
#66 = VERTEX_POINT('',#65);
#67 = CARTESIAN_POINT('',(55.5,44.,45.2));
#68 = VERTEX_POINT('',#67);
#69 = CARTESIAN_POINT('',(10.,13.3,4.));
#70 = VERTEX_POINT('',#69);
#71 = CARTESIAN_POINT('',(10.,15.5,4.));
#72 = VERTEX_POINT('',#71);
#73 = CARTESIAN_POINT('',(70.,13.3,4.));
#74 = VERTEX_POINT('',#73);
#75 = CARTESIAN_POINT('',(70.,15.5,4.));
#76 = VERTEX_POINT('',#75);
#77 = CARTESIAN_POINT('',(10.,39.3,4.));
#78 = VERTEX_POINT('',#77);
#79 = CARTESIAN_POINT('',(10.,41.5,4.));
#80 = VERTEX_POINT('',#79);
#81 = CARTESIAN_POINT('',(70.,39.3,4.));
#82 = VERTEX_POINT('',#81);
#83 = CARTESIAN_POINT('',(70.,41.5,4.));
#84 = VERTEX_POINT('',#83);
#85 = CARTESIAN_POINT('',(0.,0.,0.));
#86 = DIRECTION('',(1.,0.,0.));
#87 = VECTOR('',#86,1.);
#88 = LINE('',#85,#87);
#89 = EDGE_CURVE('',#2,#4,#88,.T.);
#90 = CARTESIAN_POINT('',(72.,0.,0.));
#91 = DIRECTION('',(0.,0.,1.));
#92 = VECTOR('',#91,1.);
#93 = LINE('',#90,#92);
#94 = EDGE_CURVE('',#4,#6,#93,.T.);
#95 = CARTESIAN_POINT('',(0.,0.,6.));
#96 = VECTOR('',#86,1.);
#97 = LINE('',#95,#96);
#98 = EDGE_CURVE('',#8,#6,#97,.T.);
#99 = CARTESIAN_POINT('',(8.,0.,0.));
#100 = VECTOR('',#91,1.);
#101 = LINE('',#99,#100);
#102 = EDGE_CURVE('',#2,#8,#101,.T.);
#103 = CARTESIAN_POINT('',(80.,0.,0.));
#104 = DIRECTION('',(0.,1.,0.));
#105 = VECTOR('',#104,1.);
#106 = LINE('',#103,#105);
#107 = EDGE_CURVE('',#10,#12,#106,.T.);
#108 = CARTESIAN_POINT('',(80.,50.,0.));
#109 = VECTOR('',#91,1.);
#110 = LINE('',#108,#109);
#111 = EDGE_CURVE('',#12,#14,#110,.T.);
#112 = CARTESIAN_POINT('',(80.,44.,46.));
#113 = VECTOR('',#104,1.);
#114 = LINE('',#112,#113);
#115 = EDGE_CURVE('',#16,#14,#114,.T.);
#116 = CARTESIAN_POINT('',(80.,44.,6.));
#117 = VECTOR('',#91,1.);
#118 = LINE('',#116,#117);
#119 = EDGE_CURVE('',#18,#16,#118,.T.);
#120 = CARTESIAN_POINT('',(80.,0.,6.));
#121 = VECTOR('',#104,1.);
#122 = LINE('',#120,#121);
#123 = EDGE_CURVE('',#20,#18,#122,.T.);
#124 = CARTESIAN_POINT('',(80.,8.,0.));
#125 = VECTOR('',#91,1.);
#126 = LINE('',#124,#125);
#127 = EDGE_CURVE('',#10,#20,#126,.T.);
#128 = CARTESIAN_POINT('',(80.,50.,0.));
#129 = DIRECTION('',(-1.,0.,0.));
#130 = VECTOR('',#129,1.);
#131 = LINE('',#128,#130);
#132 = EDGE_CURVE('',#12,#22,#131,.T.);
#133 = CARTESIAN_POINT('',(0.,50.,0.));
#134 = VECTOR('',#91,1.);
#135 = LINE('',#133,#134);
#136 = EDGE_CURVE('',#22,#24,#135,.T.);
#137 = CARTESIAN_POINT('',(80.,50.,46.));
#138 = VECTOR('',#129,1.);
#139 = LINE('',#137,#138);
#140 = EDGE_CURVE('',#14,#24,#139,.T.);
#141 = CARTESIAN_POINT('',(40.,50.,28.));
#142 = DIRECTION('',(0.,-1.,0.));
#143 = DIRECTION('',(0.,0.,1.));
#144 = AXIS2_PLACEMENT_3D('',#141,#142,#143);
#145 = CIRCLE('',#144,11.);
#146 = EDGE_CURVE('',#26,#26,#145,.T.);
#147 = CARTESIAN_POINT('',(24.5,50.,12.5));
#148 = AXIS2_PLACEMENT_3D('',#147,#142,#143);
#149 = CIRCLE('',#148,1.7);
#150 = EDGE_CURVE('',#28,#28,#149,.T.);
#151 = CARTESIAN_POINT('',(55.5,50.,12.5));
#152 = AXIS2_PLACEMENT_3D('',#151,#142,#143);
#153 = CIRCLE('',#152,1.7);
#154 = EDGE_CURVE('',#30,#30,#153,.T.);
#155 = CARTESIAN_POINT('',(24.5,50.,43.5));
#156 = AXIS2_PLACEMENT_3D('',#155,#142,#143);
#157 = CIRCLE('',#156,1.7);
#158 = EDGE_CURVE('',#32,#32,#157,.T.);
#159 = CARTESIAN_POINT('',(55.5,50.,43.5));
#160 = AXIS2_PLACEMENT_3D('',#159,#142,#143);
#161 = CIRCLE('',#160,1.7);
#162 = EDGE_CURVE('',#34,#34,#161,.T.);
#163 = CARTESIAN_POINT('',(0.,50.,0.));
#164 = VECTOR('',#142,1.);
#165 = LINE('',#163,#164);
#166 = EDGE_CURVE('',#22,#36,#165,.T.);
#167 = CARTESIAN_POINT('',(0.,8.,0.));
#168 = VECTOR('',#91,1.);
#169 = LINE('',#167,#168);
#170 = EDGE_CURVE('',#36,#38,#169,.T.);
#171 = CARTESIAN_POINT('',(0.,50.,6.));
#172 = VECTOR('',#142,1.);
#173 = LINE('',#171,#172);
#174 = EDGE_CURVE('',#40,#38,#173,.T.);
#175 = CARTESIAN_POINT('',(0.,44.,6.));
#176 = VECTOR('',#91,1.);
#177 = LINE('',#175,#176);
#178 = EDGE_CURVE('',#40,#42,#177,.T.);
#179 = CARTESIAN_POINT('',(0.,50.,46.));
#180 = VECTOR('',#142,1.);
#181 = LINE('',#179,#180);
#182 = EDGE_CURVE('',#24,#42,#181,.T.);
#183 = CARTESIAN_POINT('',(72.,8.,0.));
#184 = AXIS2_PLACEMENT_3D('',#183,#91,#129);
#185 = CIRCLE('',#184,8.);
#186 = EDGE_CURVE('',#4,#10,#185,.T.);
#187 = CARTESIAN_POINT('',(8.,8.,0.));
#188 = DIRECTION('',(1.,0.,0.));
#189 = AXIS2_PLACEMENT_3D('',#187,#91,#188);
#190 = CIRCLE('',#189,8.);
#191 = EDGE_CURVE('',#36,#2,#190,.T.);
#192 = CARTESIAN_POINT('',(10.,10.,0.));
#193 = AXIS2_PLACEMENT_3D('',#192,#91,#104);
#194 = CIRCLE('',#193,3.3);
#195 = EDGE_CURVE('',#44,#44,#194,.T.);
#196 = CARTESIAN_POINT('',(70.,10.,0.));
#197 = AXIS2_PLACEMENT_3D('',#196,#91,#104);
#198 = CIRCLE('',#197,3.3);
#199 = EDGE_CURVE('',#46,#46,#198,.T.);
#200 = CARTESIAN_POINT('',(10.,36.,0.));
#201 = DIRECTION('',(0.,0.,1.));
#202 = DIRECTION('',(0.,1.,0.));
#203 = AXIS2_PLACEMENT_3D('',#200,#201,#202);
#204 = CIRCLE('',#203,3.3);
#205 = EDGE_CURVE('',#48,#48,#204,.T.);
#206 = CARTESIAN_POINT('',(70.,36.,0.));
#207 = AXIS2_PLACEMENT_3D('',#206,#201,#202);
#208 = CIRCLE('',#207,3.3);
#209 = EDGE_CURVE('',#50,#50,#208,.T.);
#210 = CARTESIAN_POINT('',(72.,8.,6.));
#211 = AXIS2_PLACEMENT_3D('',#210,#91,#129);
#212 = CIRCLE('',#211,8.);
#213 = EDGE_CURVE('',#6,#20,#212,.T.);
#214 = CARTESIAN_POINT('',(0.,44.,6.));
#215 = VECTOR('',#86,1.);
#216 = LINE('',#214,#215);
#217 = EDGE_CURVE('',#40,#18,#216,.T.);
#218 = CARTESIAN_POINT('',(8.,8.,6.));
#219 = AXIS2_PLACEMENT_3D('',#218,#91,#188);
#220 = CIRCLE('',#219,8.);
#221 = EDGE_CURVE('',#38,#8,#220,.T.);
#222 = CARTESIAN_POINT('',(10.,10.,6.));
#223 = AXIS2_PLACEMENT_3D('',#222,#91,#104);
#224 = CIRCLE('',#223,5.5);
#225 = EDGE_CURVE('',#52,#52,#224,.T.);
#226 = CARTESIAN_POINT('',(70.,10.,6.));
#227 = AXIS2_PLACEMENT_3D('',#226,#91,#104);
#228 = CIRCLE('',#227,5.5);
#229 = EDGE_CURVE('',#54,#54,#228,.T.);
#230 = CARTESIAN_POINT('',(10.,36.,6.));
#231 = AXIS2_PLACEMENT_3D('',#230,#201,#202);
#232 = CIRCLE('',#231,5.5);
#233 = EDGE_CURVE('',#56,#56,#232,.T.);
#234 = CARTESIAN_POINT('',(70.,36.,6.));
#235 = AXIS2_PLACEMENT_3D('',#234,#201,#202);
#236 = CIRCLE('',#235,5.5);
#237 = EDGE_CURVE('',#58,#58,#236,.T.);
#238 = CARTESIAN_POINT('',(0.,44.,46.));
#239 = VECTOR('',#86,1.);
#240 = LINE('',#238,#239);
#241 = EDGE_CURVE('',#42,#16,#240,.T.);
#242 = CARTESIAN_POINT('',(40.,44.,28.));
#243 = AXIS2_PLACEMENT_3D('',#242,#142,#86);
#244 = CIRCLE('',#243,11.);
#245 = EDGE_CURVE('',#60,#60,#244,.T.);
#246 = CARTESIAN_POINT('',(24.5,44.,12.5));
#247 = AXIS2_PLACEMENT_3D('',#246,#142,#143);
#248 = CIRCLE('',#247,1.7);
#249 = EDGE_CURVE('',#62,#62,#248,.T.);
#250 = CARTESIAN_POINT('',(55.5,44.,12.5));
#251 = AXIS2_PLACEMENT_3D('',#250,#142,#143);
#252 = CIRCLE('',#251,1.7);
#253 = EDGE_CURVE('',#64,#64,#252,.T.);
#254 = CARTESIAN_POINT('',(24.5,44.,43.5));
#255 = AXIS2_PLACEMENT_3D('',#254,#142,#143);
#256 = CIRCLE('',#255,1.7);
#257 = EDGE_CURVE('',#66,#66,#256,.T.);
#258 = CARTESIAN_POINT('',(55.5,44.,43.5));
#259 = AXIS2_PLACEMENT_3D('',#258,#142,#143);
#260 = CIRCLE('',#259,1.7);
#261 = EDGE_CURVE('',#68,#68,#260,.T.);
#262 = CARTESIAN_POINT('',(10.,13.3,-524.10814652876));
#263 = VECTOR('',#91,1.);
#264 = LINE('',#262,#263);
#265 = EDGE_CURVE('',#44,#70,#264,.T.);
#266 = CARTESIAN_POINT('',(10.,10.,4.));
#267 = AXIS2_PLACEMENT_3D('',#266,#91,#104);
#268 = CIRCLE('',#267,3.3);
#269 = EDGE_CURVE('',#70,#70,#268,.T.);
#270 = CARTESIAN_POINT('',(10.,10.,4.));
#271 = AXIS2_PLACEMENT_3D('',#270,#91,#104);
#272 = CIRCLE('',#271,5.5);
#273 = EDGE_CURVE('',#72,#72,#272,.T.);
#274 = CARTESIAN_POINT('',(10.,15.5,4.));
#275 = VECTOR('',#91,1.);
#276 = LINE('',#274,#275);
#277 = EDGE_CURVE('',#72,#52,#276,.T.);
#278 = CARTESIAN_POINT('',(70.,13.3,-524.10814652876));
#279 = VECTOR('',#91,1.);
#280 = LINE('',#278,#279);
#281 = EDGE_CURVE('',#46,#74,#280,.T.);
#282 = CARTESIAN_POINT('',(70.,10.,4.));
#283 = AXIS2_PLACEMENT_3D('',#282,#91,#104);
#284 = CIRCLE('',#283,3.3);
#285 = EDGE_CURVE('',#74,#74,#284,.T.);
#286 = CARTESIAN_POINT('',(70.,10.,4.));
#287 = AXIS2_PLACEMENT_3D('',#286,#91,#104);
#288 = CIRCLE('',#287,5.5);
#289 = EDGE_CURVE('',#76,#76,#288,.T.);
#290 = CARTESIAN_POINT('',(70.,15.5,4.));
#291 = VECTOR('',#91,1.);
#292 = LINE('',#290,#291);
#293 = EDGE_CURVE('',#76,#54,#292,.T.);
#294 = CARTESIAN_POINT('',(10.,39.3,-524.10814652876));
#295 = VECTOR('',#91,1.);
#296 = LINE('',#294,#295);
#297 = EDGE_CURVE('',#48,#78,#296,.T.);
#298 = CARTESIAN_POINT('',(10.,36.,4.));
#299 = AXIS2_PLACEMENT_3D('',#298,#201,#104);
#300 = CIRCLE('',#299,3.3);
#301 = EDGE_CURVE('',#78,#78,#300,.T.);
#302 = CARTESIAN_POINT('',(10.,36.,4.));
#303 = AXIS2_PLACEMENT_3D('',#302,#201,#104);
#304 = CIRCLE('',#303,5.5);
#305 = EDGE_CURVE('',#80,#80,#304,.T.);
#306 = CARTESIAN_POINT('',(10.,41.5,4.));
#307 = VECTOR('',#91,1.);
#308 = LINE('',#306,#307);
#309 = EDGE_CURVE('',#80,#56,#308,.T.);
#310 = CARTESIAN_POINT('',(70.,39.3,-524.10814652876));
#311 = VECTOR('',#91,1.);
#312 = LINE('',#310,#311);
#313 = EDGE_CURVE('',#50,#82,#312,.T.);
#314 = CARTESIAN_POINT('',(70.,36.,4.));
#315 = AXIS2_PLACEMENT_3D('',#314,#201,#104);
#316 = CIRCLE('',#315,3.3);
#317 = EDGE_CURVE('',#82,#82,#316,.T.);
#318 = CARTESIAN_POINT('',(70.,36.,4.));
#319 = AXIS2_PLACEMENT_3D('',#318,#201,#104);
#320 = CIRCLE('',#319,5.5);
#321 = EDGE_CURVE('',#84,#84,#320,.T.);
#322 = CARTESIAN_POINT('',(70.,41.5,4.));
#323 = VECTOR('',#91,1.);
#324 = LINE('',#322,#323);
#325 = EDGE_CURVE('',#84,#58,#324,.T.);
#326 = CARTESIAN_POINT('',(51.,573.706330081982,28.));
#327 = VECTOR('',#142,1.);
#328 = LINE('',#326,#327);
#329 = EDGE_CURVE('',#26,#60,#328,.T.);
#330 = CARTESIAN_POINT('',(24.5,574.661812627399,14.2));
#331 = VECTOR('',#142,1.);
#332 = LINE('',#330,#331);
#333 = EDGE_CURVE('',#28,#62,#332,.T.);
#334 = CARTESIAN_POINT('',(55.5,574.661812627399,14.2));
#335 = VECTOR('',#142,1.);
#336 = LINE('',#334,#335);
#337 = EDGE_CURVE('',#30,#64,#336,.T.);
#338 = CARTESIAN_POINT('',(24.5,574.661812627399,45.2));
#339 = VECTOR('',#142,1.);
#340 = LINE('',#338,#339);
#341 = EDGE_CURVE('',#32,#66,#340,.T.);
#342 = CARTESIAN_POINT('',(55.5,574.661812627399,45.2));
#343 = VECTOR('',#142,1.);
#344 = LINE('',#342,#343);
#345 = EDGE_CURVE('',#34,#68,#344,.T.);
#346 = CARTESIAN_POINT('',(0.,0.,0.));
#347 = AXIS2_PLACEMENT_3D('',#346,#142,#86);
#348 = PLANE('',#347);
#349 = ORIENTED_EDGE('',*,*,#89,.T.);
#350 = ORIENTED_EDGE('',*,*,#94,.T.);
#351 = ORIENTED_EDGE('',*,*,#98,.F.);
#352 = ORIENTED_EDGE('',*,*,#102,.F.);
#353 = EDGE_LOOP('',(#349,#350,#351,#352));
#354 = FACE_OUTER_BOUND('',#353,.T.);
#355 = ADVANCED_FACE('',(#354),#348,.T.);
#356 = CARTESIAN_POINT('',(80.,0.,0.));
#357 = AXIS2_PLACEMENT_3D('',#356,#86,#104);
#358 = PLANE('',#357);
#359 = ORIENTED_EDGE('',*,*,#107,.T.);
#360 = ORIENTED_EDGE('',*,*,#111,.T.);
#361 = ORIENTED_EDGE('',*,*,#115,.F.);
#362 = ORIENTED_EDGE('',*,*,#119,.F.);
#363 = ORIENTED_EDGE('',*,*,#123,.F.);
#364 = ORIENTED_EDGE('',*,*,#127,.F.);
#365 = EDGE_LOOP('',(#359,#360,#361,#362,#363,#364));
#366 = FACE_OUTER_BOUND('',#365,.T.);
#367 = ADVANCED_FACE('',(#366),#358,.T.);
#368 = CARTESIAN_POINT('',(80.,50.,0.));
#369 = DIRECTION('',(0.,1.,0.));
#370 = AXIS2_PLACEMENT_3D('',#368,#369,#129);
#371 = PLANE('',#370);
#372 = ORIENTED_EDGE('',*,*,#132,.T.);
#373 = ORIENTED_EDGE('',*,*,#136,.T.);
#374 = ORIENTED_EDGE('',*,*,#140,.F.);
#375 = ORIENTED_EDGE('',*,*,#111,.F.);
#376 = EDGE_LOOP('',(#372,#373,#374,#375));
#377 = FACE_OUTER_BOUND('',#376,.T.);
#378 = ORIENTED_EDGE('',*,*,#146,.T.);
#379 = EDGE_LOOP('',(#378));
#380 = FACE_BOUND('',#379,.T.);
#381 = ORIENTED_EDGE('',*,*,#150,.T.);
#382 = EDGE_LOOP('',(#381));
#383 = FACE_BOUND('',#382,.T.);
#384 = ORIENTED_EDGE('',*,*,#154,.T.);
#385 = EDGE_LOOP('',(#384));
#386 = FACE_BOUND('',#385,.T.);
#387 = ORIENTED_EDGE('',*,*,#158,.T.);
#388 = EDGE_LOOP('',(#387));
#389 = FACE_BOUND('',#388,.T.);
#390 = ORIENTED_EDGE('',*,*,#162,.T.);
#391 = EDGE_LOOP('',(#390));
#392 = FACE_BOUND('',#391,.T.);
#393 = ADVANCED_FACE('',(#377,#380,#383,#386,#389,#392),#371,.T.);
#394 = CARTESIAN_POINT('',(0.,50.,0.));
#395 = AXIS2_PLACEMENT_3D('',#394,#129,#142);
#396 = PLANE('',#395);
#397 = ORIENTED_EDGE('',*,*,#166,.T.);
#398 = ORIENTED_EDGE('',*,*,#170,.T.);
#399 = ORIENTED_EDGE('',*,*,#174,.F.);
#400 = ORIENTED_EDGE('',*,*,#178,.T.);
#401 = ORIENTED_EDGE('',*,*,#182,.F.);
#402 = ORIENTED_EDGE('',*,*,#136,.F.);
#403 = EDGE_LOOP('',(#397,#398,#399,#400,#401,#402));
#404 = FACE_OUTER_BOUND('',#403,.T.);
#405 = ADVANCED_FACE('',(#404),#396,.T.);
#406 = CARTESIAN_POINT('',(0.,0.,0.));
#407 = DIRECTION('',(0.,0.,-1.));
#408 = AXIS2_PLACEMENT_3D('',#406,#407,#86);
#409 = PLANE('',#408);
#410 = ORIENTED_EDGE('',*,*,#166,.F.);
#411 = ORIENTED_EDGE('',*,*,#132,.F.);
#412 = ORIENTED_EDGE('',*,*,#107,.F.);
#413 = ORIENTED_EDGE('',*,*,#186,.F.);
#414 = ORIENTED_EDGE('',*,*,#89,.F.);
#415 = ORIENTED_EDGE('',*,*,#191,.F.);
#416 = EDGE_LOOP('',(#410,#411,#412,#413,#414,#415));
#417 = FACE_OUTER_BOUND('',#416,.T.);
#418 = ORIENTED_EDGE('',*,*,#195,.T.);
#419 = EDGE_LOOP('',(#418));
#420 = FACE_BOUND('',#419,.T.);
#421 = ORIENTED_EDGE('',*,*,#199,.T.);
#422 = EDGE_LOOP('',(#421));
#423 = FACE_BOUND('',#422,.T.);
#424 = ORIENTED_EDGE('',*,*,#205,.T.);
#425 = EDGE_LOOP('',(#424));
#426 = FACE_BOUND('',#425,.T.);
#427 = ORIENTED_EDGE('',*,*,#209,.T.);
#428 = EDGE_LOOP('',(#427));
#429 = FACE_BOUND('',#428,.T.);
#430 = ADVANCED_FACE('',(#417,#420,#423,#426,#429),#409,.T.);
#431 = CARTESIAN_POINT('',(0.,0.,6.));
#432 = AXIS2_PLACEMENT_3D('',#431,#91,#86);
#433 = PLANE('',#432);
#434 = ORIENTED_EDGE('',*,*,#98,.T.);
#435 = ORIENTED_EDGE('',*,*,#213,.T.);
#436 = ORIENTED_EDGE('',*,*,#123,.T.);
#437 = ORIENTED_EDGE('',*,*,#217,.F.);
#438 = ORIENTED_EDGE('',*,*,#174,.T.);
#439 = ORIENTED_EDGE('',*,*,#221,.T.);
#440 = EDGE_LOOP('',(#434,#435,#436,#437,#438,#439));
#441 = FACE_OUTER_BOUND('',#440,.T.);
#442 = ORIENTED_EDGE('',*,*,#225,.F.);
#443 = EDGE_LOOP('',(#442));
#444 = FACE_BOUND('',#443,.T.);
#445 = ORIENTED_EDGE('',*,*,#229,.F.);
#446 = EDGE_LOOP('',(#445));
#447 = FACE_BOUND('',#446,.T.);
#448 = ORIENTED_EDGE('',*,*,#233,.F.);
#449 = EDGE_LOOP('',(#448));
#450 = FACE_BOUND('',#449,.T.);
#451 = ORIENTED_EDGE('',*,*,#237,.F.);
#452 = EDGE_LOOP('',(#451));
#453 = FACE_BOUND('',#452,.T.);
#454 = ADVANCED_FACE('',(#441,#444,#447,#450,#453),#433,.T.);
#455 = CARTESIAN_POINT('',(0.,44.,6.));
#456 = AXIS2_PLACEMENT_3D('',#455,#142,#86);
#457 = PLANE('',#456);
#458 = ORIENTED_EDGE('',*,*,#217,.T.);
#459 = ORIENTED_EDGE('',*,*,#119,.T.);
#460 = ORIENTED_EDGE('',*,*,#241,.F.);
#461 = ORIENTED_EDGE('',*,*,#178,.F.);
#462 = EDGE_LOOP('',(#458,#459,#460,#461));
#463 = FACE_OUTER_BOUND('',#462,.T.);
#464 = ORIENTED_EDGE('',*,*,#245,.F.);
#465 = EDGE_LOOP('',(#464));
#466 = FACE_BOUND('',#465,.T.);
#467 = ORIENTED_EDGE('',*,*,#249,.F.);
#468 = EDGE_LOOP('',(#467));
#469 = FACE_BOUND('',#468,.T.);
#470 = ORIENTED_EDGE('',*,*,#253,.F.);
#471 = EDGE_LOOP('',(#470));
#472 = FACE_BOUND('',#471,.T.);
#473 = ORIENTED_EDGE('',*,*,#257,.F.);
#474 = EDGE_LOOP('',(#473));
#475 = FACE_BOUND('',#474,.T.);
#476 = ORIENTED_EDGE('',*,*,#261,.F.);
#477 = EDGE_LOOP('',(#476));
#478 = FACE_BOUND('',#477,.T.);
#479 = ADVANCED_FACE('',(#463,#466,#469,#472,#475,#478),#457,.T.);
#480 = CARTESIAN_POINT('',(0.,0.,46.));
#481 = AXIS2_PLACEMENT_3D('',#480,#91,#86);
#482 = PLANE('',#481);
#483 = ORIENTED_EDGE('',*,*,#241,.T.);
#484 = ORIENTED_EDGE('',*,*,#115,.T.);
#485 = ORIENTED_EDGE('',*,*,#140,.T.);
#486 = ORIENTED_EDGE('',*,*,#182,.T.);
#487 = EDGE_LOOP('',(#483,#484,#485,#486));
#488 = FACE_OUTER_BOUND('',#487,.T.);
#489 = ADVANCED_FACE('',(#488),#482,.T.);
#490 = CARTESIAN_POINT('',(10.,10.,6.));
#491 = AXIS2_PLACEMENT_3D('',#490,#91,#104);
#492 = CYLINDRICAL_SURFACE('',#491,3.3);
#493 = ORIENTED_EDGE('',*,*,#195,.F.);
#494 = ORIENTED_EDGE('',*,*,#265,.T.);
#495 = ORIENTED_EDGE('',*,*,#269,.T.);
#496 = ORIENTED_EDGE('',*,*,#265,.F.);
#497 = EDGE_LOOP('',(#493,#494,#495,#496));
#498 = FACE_OUTER_BOUND('',#497,.T.);
#499 = ADVANCED_FACE('',(#498),#492,.F.);
#500 = CARTESIAN_POINT('',(10.,10.,4.));
#501 = AXIS2_PLACEMENT_3D('',#500,#91,#104);
#502 = PLANE('',#501);
#503 = ORIENTED_EDGE('',*,*,#273,.T.);
#504 = EDGE_LOOP('',(#503));
#505 = FACE_OUTER_BOUND('',#504,.T.);
#506 = ORIENTED_EDGE('',*,*,#269,.F.);
#507 = EDGE_LOOP('',(#506));
#508 = FACE_BOUND('',#507,.T.);
#509 = ADVANCED_FACE('',(#505,#508),#502,.T.);
#510 = CARTESIAN_POINT('',(10.,10.,6.));
#511 = AXIS2_PLACEMENT_3D('',#510,#91,#104);
#512 = CYLINDRICAL_SURFACE('',#511,5.5);
#513 = ORIENTED_EDGE('',*,*,#277,.T.);
#514 = ORIENTED_EDGE('',*,*,#225,.T.);
#515 = ORIENTED_EDGE('',*,*,#277,.F.);
#516 = ORIENTED_EDGE('',*,*,#273,.F.);
#517 = EDGE_LOOP('',(#513,#514,#515,#516));
#518 = FACE_OUTER_BOUND('',#517,.T.);
#519 = ADVANCED_FACE('',(#518),#512,.F.);
#520 = CARTESIAN_POINT('',(70.,10.,6.));
#521 = AXIS2_PLACEMENT_3D('',#520,#91,#104);
#522 = CYLINDRICAL_SURFACE('',#521,3.3);
#523 = ORIENTED_EDGE('',*,*,#199,.F.);
#524 = ORIENTED_EDGE('',*,*,#281,.T.);
#525 = ORIENTED_EDGE('',*,*,#285,.T.);
#526 = ORIENTED_EDGE('',*,*,#281,.F.);
#527 = EDGE_LOOP('',(#523,#524,#525,#526));
#528 = FACE_OUTER_BOUND('',#527,.T.);
#529 = ADVANCED_FACE('',(#528),#522,.F.);
#530 = CARTESIAN_POINT('',(70.,10.,4.));
#531 = AXIS2_PLACEMENT_3D('',#530,#91,#104);
#532 = PLANE('',#531);
#533 = ORIENTED_EDGE('',*,*,#289,.T.);
#534 = EDGE_LOOP('',(#533));
#535 = FACE_OUTER_BOUND('',#534,.T.);
#536 = ORIENTED_EDGE('',*,*,#285,.F.);
#537 = EDGE_LOOP('',(#536));
#538 = FACE_BOUND('',#537,.T.);
#539 = ADVANCED_FACE('',(#535,#538),#532,.T.);
#540 = CARTESIAN_POINT('',(70.,10.,6.));
#541 = AXIS2_PLACEMENT_3D('',#540,#91,#104);
#542 = CYLINDRICAL_SURFACE('',#541,5.5);
#543 = ORIENTED_EDGE('',*,*,#293,.T.);
#544 = ORIENTED_EDGE('',*,*,#229,.T.);
#545 = ORIENTED_EDGE('',*,*,#293,.F.);
#546 = ORIENTED_EDGE('',*,*,#289,.F.);
#547 = EDGE_LOOP('',(#543,#544,#545,#546));
#548 = FACE_OUTER_BOUND('',#547,.T.);
#549 = ADVANCED_FACE('',(#548),#542,.F.);
#550 = CARTESIAN_POINT('',(10.,36.,6.));
#551 = AXIS2_PLACEMENT_3D('',#550,#201,#104);
#552 = CYLINDRICAL_SURFACE('',#551,3.3);
#553 = ORIENTED_EDGE('',*,*,#205,.F.);
#554 = ORIENTED_EDGE('',*,*,#297,.T.);
#555 = ORIENTED_EDGE('',*,*,#301,.T.);
#556 = ORIENTED_EDGE('',*,*,#297,.F.);
#557 = EDGE_LOOP('',(#553,#554,#555,#556));
#558 = FACE_OUTER_BOUND('',#557,.T.);
#559 = ADVANCED_FACE('',(#558),#552,.F.);
#560 = CARTESIAN_POINT('',(10.,36.,4.));
#561 = AXIS2_PLACEMENT_3D('',#560,#201,#104);
#562 = PLANE('',#561);
#563 = ORIENTED_EDGE('',*,*,#305,.T.);
#564 = EDGE_LOOP('',(#563));
#565 = FACE_OUTER_BOUND('',#564,.T.);
#566 = ORIENTED_EDGE('',*,*,#301,.F.);
#567 = EDGE_LOOP('',(#566));
#568 = FACE_BOUND('',#567,.T.);
#569 = ADVANCED_FACE('',(#565,#568),#562,.T.);
#570 = CARTESIAN_POINT('',(10.,36.,6.));
#571 = AXIS2_PLACEMENT_3D('',#570,#201,#104);
#572 = CYLINDRICAL_SURFACE('',#571,5.5);
#573 = ORIENTED_EDGE('',*,*,#309,.T.);
#574 = ORIENTED_EDGE('',*,*,#233,.T.);
#575 = ORIENTED_EDGE('',*,*,#309,.F.);
#576 = ORIENTED_EDGE('',*,*,#305,.F.);
#577 = EDGE_LOOP('',(#573,#574,#575,#576));
#578 = FACE_OUTER_BOUND('',#577,.T.);
#579 = ADVANCED_FACE('',(#578),#572,.F.);
#580 = CARTESIAN_POINT('',(70.,36.,6.));
#581 = AXIS2_PLACEMENT_3D('',#580,#201,#104);
#582 = CYLINDRICAL_SURFACE('',#581,3.3);
#583 = ORIENTED_EDGE('',*,*,#209,.F.);
#584 = ORIENTED_EDGE('',*,*,#313,.T.);
#585 = ORIENTED_EDGE('',*,*,#317,.T.);
#586 = ORIENTED_EDGE('',*,*,#313,.F.);
#587 = EDGE_LOOP('',(#583,#584,#585,#586));
#588 = FACE_OUTER_BOUND('',#587,.T.);
#589 = ADVANCED_FACE('',(#588),#582,.F.);
#590 = CARTESIAN_POINT('',(70.,36.,4.));
#591 = AXIS2_PLACEMENT_3D('',#590,#201,#104);
#592 = PLANE('',#591);
#593 = ORIENTED_EDGE('',*,*,#321,.T.);
#594 = EDGE_LOOP('',(#593));
#595 = FACE_OUTER_BOUND('',#594,.T.);
#596 = ORIENTED_EDGE('',*,*,#317,.F.);
#597 = EDGE_LOOP('',(#596));
#598 = FACE_BOUND('',#597,.T.);
#599 = ADVANCED_FACE('',(#595,#598),#592,.T.);
#600 = CARTESIAN_POINT('',(70.,36.,6.));
#601 = AXIS2_PLACEMENT_3D('',#600,#201,#104);
#602 = CYLINDRICAL_SURFACE('',#601,5.5);
#603 = ORIENTED_EDGE('',*,*,#325,.T.);
#604 = ORIENTED_EDGE('',*,*,#237,.T.);
#605 = ORIENTED_EDGE('',*,*,#325,.F.);
#606 = ORIENTED_EDGE('',*,*,#321,.F.);
#607 = EDGE_LOOP('',(#603,#604,#605,#606));
#608 = FACE_OUTER_BOUND('',#607,.T.);
#609 = ADVANCED_FACE('',(#608),#602,.F.);
#610 = CARTESIAN_POINT('',(40.,573.706330081982,28.));
#611 = AXIS2_PLACEMENT_3D('',#610,#142,#86);
#612 = CYLINDRICAL_SURFACE('',#611,11.);
#613 = ORIENTED_EDGE('',*,*,#146,.F.);
#614 = ORIENTED_EDGE('',*,*,#329,.T.);
#615 = ORIENTED_EDGE('',*,*,#245,.T.);
#616 = ORIENTED_EDGE('',*,*,#329,.F.);
#617 = EDGE_LOOP('',(#613,#614,#615,#616));
#618 = FACE_OUTER_BOUND('',#617,.T.);
#619 = ADVANCED_FACE('',(#618),#612,.F.);
#620 = CARTESIAN_POINT('',(24.5,44.,12.5));
#621 = AXIS2_PLACEMENT_3D('',#620,#142,#91);
#622 = CYLINDRICAL_SURFACE('',#621,1.7);
#623 = ORIENTED_EDGE('',*,*,#150,.F.);
#624 = ORIENTED_EDGE('',*,*,#333,.T.);
#625 = ORIENTED_EDGE('',*,*,#249,.T.);
#626 = ORIENTED_EDGE('',*,*,#333,.F.);
#627 = EDGE_LOOP('',(#623,#624,#625,#626));
#628 = FACE_OUTER_BOUND('',#627,.T.);
#629 = ADVANCED_FACE('',(#628),#622,.F.);
#630 = CARTESIAN_POINT('',(55.5,44.,12.5));
#631 = AXIS2_PLACEMENT_3D('',#630,#142,#91);
#632 = CYLINDRICAL_SURFACE('',#631,1.7);
#633 = ORIENTED_EDGE('',*,*,#154,.F.);
#634 = ORIENTED_EDGE('',*,*,#337,.T.);
#635 = ORIENTED_EDGE('',*,*,#253,.T.);
#636 = ORIENTED_EDGE('',*,*,#337,.F.);
#637 = EDGE_LOOP('',(#633,#634,#635,#636));
#638 = FACE_OUTER_BOUND('',#637,.T.);
#639 = ADVANCED_FACE('',(#638),#632,.F.);
#640 = CARTESIAN_POINT('',(24.5,44.,43.5));
#641 = AXIS2_PLACEMENT_3D('',#640,#142,#91);
#642 = CYLINDRICAL_SURFACE('',#641,1.7);
#643 = ORIENTED_EDGE('',*,*,#158,.F.);
#644 = ORIENTED_EDGE('',*,*,#341,.T.);
#645 = ORIENTED_EDGE('',*,*,#257,.T.);
#646 = ORIENTED_EDGE('',*,*,#341,.F.);
#647 = EDGE_LOOP('',(#643,#644,#645,#646));
#648 = FACE_OUTER_BOUND('',#647,.T.);
#649 = ADVANCED_FACE('',(#648),#642,.F.);
#650 = CARTESIAN_POINT('',(55.5,44.,43.5));
#651 = AXIS2_PLACEMENT_3D('',#650,#142,#91);
#652 = CYLINDRICAL_SURFACE('',#651,1.7);
#653 = ORIENTED_EDGE('',*,*,#162,.F.);
#654 = ORIENTED_EDGE('',*,*,#345,.T.);
#655 = ORIENTED_EDGE('',*,*,#261,.T.);
#656 = ORIENTED_EDGE('',*,*,#345,.F.);
#657 = EDGE_LOOP('',(#653,#654,#655,#656));
#658 = FACE_OUTER_BOUND('',#657,.T.);
#659 = ADVANCED_FACE('',(#658),#652,.F.);
#660 = CARTESIAN_POINT('',(72.,8.,0.));
#661 = AXIS2_PLACEMENT_3D('',#660,#91,#129);
#662 = CYLINDRICAL_SURFACE('',#661,8.);
#663 = ORIENTED_EDGE('',*,*,#127,.T.);
#664 = ORIENTED_EDGE('',*,*,#213,.F.);
#665 = ORIENTED_EDGE('',*,*,#94,.F.);
#666 = ORIENTED_EDGE('',*,*,#186,.T.);
#667 = EDGE_LOOP('',(#663,#664,#665,#666));
#668 = FACE_OUTER_BOUND('',#667,.T.);
#669 = ADVANCED_FACE('',(#668),#662,.T.);
#670 = CARTESIAN_POINT('',(8.,8.,0.));
#671 = AXIS2_PLACEMENT_3D('',#670,#91,#188);
#672 = CYLINDRICAL_SURFACE('',#671,8.);
#673 = ORIENTED_EDGE('',*,*,#102,.T.);
#674 = ORIENTED_EDGE('',*,*,#221,.F.);
#675 = ORIENTED_EDGE('',*,*,#170,.F.);
#676 = ORIENTED_EDGE('',*,*,#191,.T.);
#677 = EDGE_LOOP('',(#673,#674,#675,#676));
#678 = FACE_OUTER_BOUND('',#677,.T.);
#679 = ADVANCED_FACE('',(#678),#672,.T.);
#680 = CLOSED_SHELL('',(#355,#367,#393,#405,#430,#454,#479,#489,#499,#509,#519,#529,#539,#549,#559,#569,#579,#589,#599,#609,#619,#629,#639,#649,#659,#669,#679));
#681 = MANIFOLD_SOLID_BREP('motor-mount-bracket',#680);
#682 = ( LENGTH_UNIT() NAMED_UNIT(*) SI_UNIT(.MILLI.,.METRE.) );
#683 = ( NAMED_UNIT(*) PLANE_ANGLE_UNIT() SI_UNIT($,.RADIAN.) );
#684 = ( NAMED_UNIT(*) SI_UNIT($,.STERADIAN.) SOLID_ANGLE_UNIT() );
#685 = UNCERTAINTY_MEASURE_WITH_UNIT(LENGTH_MEASURE(1.E-7),#682,'distance_accuracy_value','confusion accuracy');
#686 = ( GEOMETRIC_REPRESENTATION_CONTEXT(3) GLOBAL_UNCERTAINTY_ASSIGNED_CONTEXT((#685)) GLOBAL_UNIT_ASSIGNED_CONTEXT((#682,#683,#684)) REPRESENTATION_CONTEXT('Context #1','3D Context with UNIT and UNCERTAINTY') );
#687 = CARTESIAN_POINT('',(0.,0.,0.));
#688 = AXIS2_PLACEMENT_3D('',#687,#91,#86);
#689 = ADVANCED_BREP_SHAPE_REPRESENTATION('motor-mount-bracket',(#688,#681),#686);
#690 = APPLICATION_CONTEXT('core data for automotive mechanical design processes');
#691 = APPLICATION_PROTOCOL_DEFINITION('international standard','automotive_design',2000,#690);
#692 = PRODUCT_CONTEXT('',#690,'mechanical');
#693 = PRODUCT('motor-mount-bracket','motor-mount-bracket','',(#692));
#694 = PRODUCT_DEFINITION_FORMATION('','',#693);
#695 = PRODUCT_DEFINITION_CONTEXT('part definition',#690,'design');
#696 = PRODUCT_DEFINITION('design','',#694,#695);
#697 = PRODUCT_DEFINITION_SHAPE('','',#696);
#698 = SHAPE_DEFINITION_REPRESENTATION(#697,#689);
#699 = PRODUCT_RELATED_PRODUCT_CATEGORY('part','',(#693));
ENDSEC;
END-ISO-10303-21;
