<svg xmlns="http://www.w3.org/2000/svg" width="128" height="128" viewBox="0 0 128 128"><defs><linearGradient id="bg" x2="0" y2="1"><stop stop-color="#9aa4b2"/><stop offset="1" stop-color="#4e5765"/></linearGradient><linearGradient id="folder" x2="0" y2="1"><stop stop-color="#ffe88b"/><stop offset="1" stop-color="#f7ba40"/></linearGradient></defs><rect x="5" y="4" width="118" height="118" rx="27" fill="url(#bg)"/><rect x="27" y="16" width="74" height="96" rx="10" fill="#eef2f7" stroke="#97a3b2" stroke-width="2"/><rect x="37" y="26" width="54" height="22" rx="5" fill="#2b323d"/><path d="M46 40h28" stroke="#6fe08d" stroke-width="5" stroke-linecap="round"/><rect x="37" y="58" width="14" height="12" rx="3" fill="#ccd6e2"/><rect x="57" y="58" width="14" height="12" rx="3" fill="#ccd6e2"/><rect x="77" y="58" width="14" height="12" rx="3" fill="#f5a13c"/><rect x="37" y="76" width="14" height="12" rx="3" fill="#ccd6e2"/><rect x="57" y="76" width="14" height="12" rx="3" fill="#ccd6e2"/><rect x="77" y="76" width="14" height="12" rx="3" fill="#f5a13c"/><rect x="37" y="94" width="14" height="12" rx="3" fill="#ccd6e2"/><rect x="57" y="94" width="14" height="12" rx="3" fill="#ccd6e2"/><rect x="77" y="94" width="14" height="12" rx="3" fill="#f5a13c"/></svg>